<svg xmlns="http://www.w3.org/2000/svg" width="256" height="256" viewBox="0 0 256 256" version="1.1"><path d="M 4.500 10.155 C 1.242 11.936, 0 14.151, 0 18.176 C 0 21.614, 3.673 26.866, 39.203 74.235 C 60.765 102.981, 78.406 127.175, 78.406 128 C 78.406 128.825, 60.765 153.019, 39.203 181.765 C 2.729 230.392, -0 234.311, -0 238.061 C -0 243.335, 3.432 247, 8.371 247 C 12.676 247, 251.574 137.091, 254.250 133.879 C 255.237 132.694, 256 130.132, 256 128 C 256 125.868, 255.237 123.306, 254.250 122.121 C 251.983 119.400, 12.709 8.990, 9.166 9.030 C 7.700 9.047, 5.600 9.553, 4.500 10.155" stroke="none" fill="#c88454" fill-rule="evenodd"/></svg>