<svg xmlns="http://www.w3.org/2000/svg" width="256" height="256" viewBox="0 0 256 256" version="1.1"><path d="M 214.037 30.382 L 183.500 60.765 178.500 58.207 C 170.301 54.012, 155.802 49.208, 146.355 47.555 C 112.021 41.550, 78.563 52.287, 42.500 80.886 C 34.092 87.554, 13.420 108.120, 5.617 117.579 C -2.008 126.823, -2.008 129.177, 5.617 138.421 C 18.159 153.626, 41.235 175.213, 53.807 183.502 L 58.114 186.341 29.057 215.460 C 1.947 242.627, -0 244.815, -0 248.115 C -0 252.706, 3.353 256, 8.027 256 C 11.147 256, 13.928 253.510, 41.963 225.618 L 72.500 195.235 77.500 197.793 C 92.184 205.305, 111.589 209.994, 128 209.994 C 163.242 209.994, 197.591 192.626, 233.192 156.806 C 250.934 138.956, 257 131.270, 257 126.639 C 257 124.638, 256.630 123.113, 256.177 123.250 C 255.725 123.388, 252.930 120.593, 249.966 117.040 C 237.299 101.854, 214.556 80.649, 202.193 72.498 L 197.886 69.659 226.943 40.540 C 254.053 13.373, 256 11.185, 256 7.885 C 256 3.294, 252.647 0, 247.973 0 C 244.853 0, 242.072 2.490, 214.037 30.382 M 106.124 64.521 C 95.671 67.221, 77.558 75.526, 67.860 82.063 C 51.258 93.256, 32.199 110.232, 21.619 123.250 L 17.759 128 21.619 132.750 C 32.199 145.768, 51.258 162.744, 67.860 173.937 C 77.789 180.630, 95.708 188.787, 106.490 191.523 C 120.161 194.990, 135.839 194.990, 149.510 191.523 C 160.292 188.787, 178.211 180.630, 188.140 173.937 C 204.535 162.884, 224.001 145.548, 234.386 132.750 L 238.241 128 234.386 123.250 C 224.001 110.452, 204.535 93.116, 188.140 82.063 C 178.211 75.370, 160.292 67.213, 149.510 64.477 C 135.980 61.045, 119.512 61.062, 106.124 64.521 M 121.402 78.997 C 110.377 80.613, 102.374 84.557, 94.189 92.406 C 83.901 102.273, 78.737 114.167, 78.737 128 C 78.737 141.341, 83.082 152.088, 92.406 161.811 C 112.349 182.606, 143.651 182.606, 163.594 161.811 C 166.395 158.890, 169.839 154.469, 171.247 151.987 C 179.551 137.346, 179.234 117.401, 170.470 103 C 166.474 96.435, 158.226 88.291, 151.987 84.753 C 143.524 79.953, 130.984 77.593, 121.402 78.997 M 122.361 95.078 C 111.947 96.449, 102.124 104.119, 97.306 114.642 C 95.333 118.953, 94.842 121.639, 94.842 128.131 C 94.842 135.168, 95.249 137.064, 97.931 142.511 C 101.544 149.851, 107.120 155.250, 114.642 158.694 C 122.265 162.184, 133.735 162.184, 141.358 158.694 C 148.880 155.250, 154.456 149.851, 158.069 142.511 C 160.751 137.064, 161.158 135.168, 161.158 128.131 C 161.158 121.639, 160.667 118.953, 158.694 114.642 C 155.242 107.104, 149.822 101.514, 142.642 98.090 C 135.917 94.883, 130.245 94.041, 122.361 95.078 M 0.272 128 C 0.272 130.475, 0.467 131.488, 0.706 130.250 C 0.944 129.012, 0.944 126.987, 0.706 125.750 C 0.467 124.513, 0.272 125.525, 0.272 128" stroke="none" fill="#ff6404" fill-rule="evenodd"/></svg>