<svg xmlns="http://www.w3.org/2000/svg" width="256" height="256" viewBox="0 0 256 256" version="1.1"><path d="M 112.500 48.709 C 105.840 49.616, 89.317 54.224, 82.135 57.177 C 71.462 61.564, 56.694 70.104, 46.308 77.894 C 35.150 86.262, 18.034 102.746, 7.866 114.914 C -2.381 127.178, -2.510 128.771, 5.899 139.191 C 14.199 149.477, 36.951 171.523, 46.729 178.754 C 77.017 201.155, 106.932 210.651, 138.565 207.904 C 161.558 205.907, 181.541 198.281, 204 182.933 C 219.381 172.421, 240.839 152.051, 251.846 137.510 C 256.066 131.935, 257 129.974, 257 126.684 C 257 124.475, 256.729 122.938, 256.397 123.269 C 256.066 123.601, 253.086 120.464, 249.775 116.298 C 242.328 106.926, 225.153 89.893, 214.500 81.313 C 193.843 64.676, 170.276 53.433, 148.065 49.618 C 139.420 48.133, 120.309 47.644, 112.500 48.709 M 123.500 64.708 C 98.012 66.443, 74.260 77.036, 48 98.380 C 39.470 105.314, 28.308 116.250, 22.623 123.246 L 18.766 127.991 24.507 135.008 C 39.114 152.863, 63.810 172.071, 84.200 181.437 C 121.933 198.770, 158.797 193.878, 197.500 166.400 C 208.976 158.253, 237 131.527, 237 128.731 C 237 126.702, 223.688 111.622, 215.514 104.392 C 198.075 88.965, 175.878 75.231, 160.061 70.081 C 148.422 66.291, 133.169 64.050, 123.500 64.708 M 112.806 82.405 C 103.661 85.633, 100.272 87.908, 92.778 95.853 C 84.216 104.929, 80.861 112.883, 80.227 125.606 C 78.826 153.763, 99.588 176.016, 127.500 176.273 C 155.006 176.525, 176.228 155.498, 176.220 128 C 176.211 100.648, 155.222 79.949, 127.568 80.021 C 121.685 80.036, 117.688 80.682, 112.806 82.405 M 116.063 99.192 C 99.993 105.362, 92.251 125.602, 99.881 141.500 C 103.152 148.315, 105.453 150.998, 111.067 154.542 C 126.213 164.103, 147.147 159.170, 155.345 144.107 C 159.417 136.626, 160.547 128.684, 158.613 121.135 C 155.861 110.392, 151.112 104.494, 141.500 99.881 C 133.918 96.243, 124.415 95.985, 116.063 99.192 M 0.272 128 C 0.272 130.475, 0.467 131.488, 0.706 130.250 C 0.944 129.012, 0.944 126.987, 0.706 125.750 C 0.467 124.513, 0.272 125.525, 0.272 128" stroke="none" fill="#ff5c04" fill-rule="evenodd"/></svg>